<?xml version="1.0" encoding="UTF-8"?>
<svg xmlns="http://www.w3.org/2000/svg" xmlns:xlink="http://www.w3.org/1999/xlink" width="595.276pt" height="841.89pt" viewBox="0 0 595.276 841.89" version="1.1">
<g id="surface1">
<path style=" stroke:none;fill-rule:nonzero;fill:rgb(0%,26.274109%,50.289917%);fill-opacity:1;" d="M 56.121094 659.578125 L 66.703125 659.578125 L 66.703125 662.332031 L 59.464844 662.332031 L 59.464844 667.390625 L 66.214844 667.390625 L 66.214844 670.140625 L 59.464844 670.140625 L 59.464844 677.921875 L 56.121094 677.921875 Z M 56.121094 659.578125 "/>
<path style=" stroke:none;fill-rule:nonzero;fill:rgb(0%,26.274109%,50.289917%);fill-opacity:1;" d="M 83.410156 667.933594 L 85.398438 667.933594 C 87.65625 667.933594 89.074219 666.738281 89.074219 664.914063 C 89.074219 662.902344 87.65625 661.976563 85.480469 661.976563 C 84.417969 661.976563 83.738281 662.058594 83.410156 662.140625 Z M 80.09375 659.824219 C 81.34375 659.609375 83.21875 659.445313 85.152344 659.445313 C 87.792969 659.445313 89.589844 659.878906 90.8125 660.914063 C 91.820313 661.757813 92.390625 663.039063 92.390625 664.585938 C 92.390625 666.953125 90.785156 668.5625 89.074219 669.1875 L 89.074219 669.269531 C 90.378906 669.757813 91.167969 671.039063 91.628906 672.804688 C 92.203125 675.09375 92.691406 677.214844 93.074219 677.921875 L 89.617188 677.921875 C 89.34375 677.378906 88.910156 675.878906 88.390625 673.597656 C 87.875 671.203125 87.003906 670.4375 85.097656 670.386719 L 83.410156 670.386719 L 83.410156 677.921875 L 80.09375 677.921875 Z M 80.09375 659.824219 "/>
<path style=" stroke:none;fill-rule:nonzero;fill:rgb(0%,26.274109%,50.289917%);fill-opacity:1;" d="M 115.953125 669.785156 L 109.042969 669.785156 L 109.042969 675.175781 L 116.769531 675.175781 L 116.769531 677.921875 L 105.695313 677.921875 L 105.695313 659.578125 L 116.363281 659.578125 L 116.363281 662.332031 L 109.042969 662.332031 L 109.042969 667.0625 L 115.953125 667.0625 Z M 115.953125 669.785156 "/>
<path style=" stroke:none;fill-rule:nonzero;fill:rgb(0%,26.274109%,50.289917%);fill-opacity:1;" d="M 129.75 674.277344 C 130.835938 674.902344 132.46875 675.445313 134.1875 675.445313 C 136.335938 675.445313 137.53125 674.4375 137.53125 672.941406 C 137.53125 671.554688 136.605469 670.738281 134.265625 669.894531 C 131.246094 668.804688 129.3125 667.199219 129.3125 664.558594 C 129.3125 661.566406 131.816406 659.28125 135.789063 659.28125 C 137.777344 659.28125 139.246094 659.71875 140.199219 660.207031 L 139.382813 662.902344 C 138.730469 662.546875 137.449219 662.03125 135.734375 662.03125 C 133.613281 662.03125 132.6875 663.171875 132.6875 664.234375 C 132.6875 665.648438 133.75 666.300781 136.199219 667.253906 C 139.382813 668.453125 140.933594 670.058594 140.933594 672.695313 C 140.933594 675.636719 138.703125 678.195313 133.96875 678.195313 C 132.035156 678.195313 130.019531 677.652344 129.011719 677.050781 Z M 129.75 674.277344 "/>
<path style=" stroke:none;fill-rule:nonzero;fill:rgb(0%,26.274109%,50.289917%);fill-opacity:1;" d="M 157.421875 659.578125 L 157.421875 666.929688 L 165.179688 666.929688 L 165.179688 659.578125 L 168.523438 659.578125 L 168.523438 677.921875 L 165.179688 677.921875 L 165.179688 669.839844 L 157.421875 669.839844 L 157.421875 677.921875 L 154.074219 677.921875 L 154.074219 659.578125 Z M 157.421875 659.578125 "/>
<path style=" stroke:none;fill-rule:nonzero;fill:rgb(0%,26.274109%,50.289917%);fill-opacity:1;" d="M 198.234375 659.578125 L 208.820313 659.578125 L 208.820313 662.332031 L 201.582031 662.332031 L 201.582031 667.390625 L 208.332031 667.390625 L 208.332031 670.140625 L 201.582031 670.140625 L 201.582031 677.921875 L 198.234375 677.921875 Z M 198.234375 659.578125 "/>
<path style=" stroke:none;fill-rule:nonzero;fill:rgb(0%,26.274109%,50.289917%);fill-opacity:1;" d="M 225.554688 677.921875 L 222.207031 677.921875 L 222.207031 659.578125 L 225.554688 659.578125 Z M 225.554688 677.921875 "/>
<path style=" stroke:none;fill-rule:nonzero;fill:rgb(0%,26.274109%,50.289917%);fill-opacity:1;" d="M 239.429688 674.277344 C 240.519531 674.902344 242.152344 675.445313 243.867188 675.445313 C 246.019531 675.445313 247.214844 674.4375 247.214844 672.941406 C 247.214844 671.554688 246.289063 670.738281 243.949219 669.894531 C 240.925781 668.804688 238.996094 667.199219 238.996094 664.558594 C 238.996094 661.566406 241.5 659.28125 245.472656 659.28125 C 247.457031 659.28125 248.929688 659.71875 249.882813 660.207031 L 249.066406 662.902344 C 248.410156 662.546875 247.132813 662.03125 245.417969 662.03125 C 243.296875 662.03125 242.371094 663.171875 242.371094 664.234375 C 242.371094 665.648438 243.433594 666.300781 245.882813 667.253906 C 249.066406 668.453125 250.617188 670.058594 250.617188 672.695313 C 250.617188 675.636719 248.382813 678.195313 243.648438 678.195313 C 241.714844 678.195313 239.703125 677.652344 238.695313 677.050781 Z M 239.429688 674.277344 "/>
<path style=" stroke:none;fill-rule:nonzero;fill:rgb(0%,26.274109%,50.289917%);fill-opacity:1;" d="M 267.105469 659.578125 L 267.105469 666.929688 L 274.859375 666.929688 L 274.859375 659.578125 L 278.207031 659.578125 L 278.207031 677.921875 L 274.859375 677.921875 L 274.859375 669.839844 L 267.105469 669.839844 L 267.105469 677.921875 L 263.757813 677.921875 L 263.757813 659.578125 Z M 267.105469 659.578125 "/>
<path style=" stroke:none;fill-rule:nonzero;fill:rgb(0%,26.274109%,50.289917%);fill-opacity:1;" d="M 311.265625 675.363281 C 311.726563 675.445313 312.433594 675.445313 313.117188 675.445313 C 317.46875 675.472656 320.054688 673.078125 320.054688 668.425781 C 320.082031 664.371094 317.742188 662.054688 313.550781 662.054688 C 312.488281 662.054688 311.726563 662.136719 311.265625 662.246094 Z M 307.917969 659.824219 C 309.386719 659.578125 311.265625 659.445313 313.25 659.445313 C 316.679688 659.445313 319.046875 660.152344 320.734375 661.566406 C 322.503906 663.007813 323.59375 665.1875 323.59375 668.316406 C 323.59375 671.582031 322.476563 674.03125 320.734375 675.609375 C 318.910156 677.269531 316 678.113281 312.433594 678.113281 C 310.476563 678.113281 309.003906 678.007813 307.917969 677.867188 Z M 307.917969 659.824219 "/>
<path style=" stroke:none;fill-rule:nonzero;fill:rgb(0%,26.274109%,50.289917%);fill-opacity:1;" d="M 346.886719 669.785156 L 339.972656 669.785156 L 339.972656 675.175781 L 347.699219 675.175781 L 347.699219 677.921875 L 336.625 677.921875 L 336.625 659.578125 L 347.292969 659.578125 L 347.292969 662.332031 L 339.972656 662.332031 L 339.972656 667.0625 L 346.886719 667.0625 Z M 346.886719 669.785156 "/>
<path style=" stroke:none;fill-rule:nonzero;fill:rgb(0%,26.274109%,50.289917%);fill-opacity:1;" d="M 360.761719 659.578125 L 364.105469 659.578125 L 364.105469 675.121094 L 371.644531 675.121094 L 371.644531 677.921875 L 360.761719 677.921875 Z M 360.761719 659.578125 "/>
<path style=" stroke:none;fill-rule:nonzero;fill:rgb(0%,26.274109%,50.289917%);fill-opacity:1;" d="M 387.644531 677.921875 L 384.296875 677.921875 L 384.296875 659.578125 L 387.644531 659.578125 Z M 387.644531 677.921875 "/>
<path style=" stroke:none;fill-rule:nonzero;fill:rgb(0%,26.274109%,50.289917%);fill-opacity:1;" d="M 405.792969 677.921875 L 399.859375 659.578125 L 403.507813 659.578125 L 406.011719 667.90625 C 406.71875 670.222656 407.316406 672.371094 407.808594 674.601563 L 407.859375 674.601563 C 408.351563 672.425781 409.007813 670.191406 409.738281 667.964844 L 412.40625 659.578125 L 415.972656 659.578125 L 409.628906 677.921875 Z M 405.792969 677.921875 "/>
<path style=" stroke:none;fill-rule:nonzero;fill:rgb(0%,26.274109%,50.289917%);fill-opacity:1;" d="M 438.335938 669.785156 L 431.421875 669.785156 L 431.421875 675.175781 L 439.152344 675.175781 L 439.152344 677.921875 L 428.074219 677.921875 L 428.074219 659.578125 L 438.742188 659.578125 L 438.742188 662.332031 L 431.421875 662.332031 L 431.421875 667.0625 L 438.335938 667.0625 Z M 438.335938 669.785156 "/>
<path style=" stroke:none;fill-rule:nonzero;fill:rgb(0%,26.274109%,50.289917%);fill-opacity:1;" d="M 455.53125 667.933594 L 457.519531 667.933594 C 459.777344 667.933594 461.191406 666.738281 461.191406 664.914063 C 461.191406 662.902344 459.777344 661.976563 457.601563 661.976563 C 456.539063 661.976563 455.859375 662.058594 455.53125 662.140625 Z M 452.214844 659.824219 C 453.464844 659.609375 455.339844 659.445313 457.273438 659.445313 C 459.914063 659.445313 461.710938 659.878906 462.933594 660.914063 C 463.941406 661.757813 464.511719 663.039063 464.511719 664.585938 C 464.511719 666.953125 462.90625 668.5625 461.191406 669.1875 L 461.191406 669.269531 C 462.5 669.757813 463.289063 671.039063 463.75 672.804688 C 464.324219 675.09375 464.8125 677.214844 465.195313 677.921875 L 461.738281 677.921875 C 461.464844 677.378906 461.027344 675.878906 460.511719 673.597656 C 459.996094 671.203125 459.125 670.4375 457.21875 670.386719 L 455.53125 670.386719 L 455.53125 677.921875 L 452.214844 677.921875 Z M 452.214844 659.824219 "/>
<path style=" stroke:none;fill-rule:nonzero;fill:rgb(0%,26.274109%,50.289917%);fill-opacity:1;" d="M 481.164063 677.921875 L 477.816406 677.921875 L 477.816406 659.578125 L 481.164063 659.578125 Z M 481.164063 677.921875 "/>
<path style=" stroke:none;fill-rule:nonzero;fill:rgb(0%,26.274109%,50.289917%);fill-opacity:1;" d="M 495.121094 677.921875 L 495.121094 659.578125 L 498.933594 659.578125 L 503.667969 667.445313 C 504.890625 669.484375 505.953125 671.609375 506.796875 673.597656 L 506.851563 673.597656 C 506.632813 671.148438 506.550781 668.777344 506.550781 665.976563 L 506.550781 659.578125 L 509.652344 659.578125 L 509.652344 677.921875 L 506.195313 677.921875 L 501.40625 669.867188 C 500.238281 667.855469 499.015625 665.59375 498.113281 663.523438 L 498.03125 663.554688 C 498.171875 665.921875 498.195313 668.34375 498.195313 671.363281 L 498.195313 677.921875 Z M 495.121094 677.921875 "/>
<path style=" stroke:none;fill-rule:nonzero;fill:rgb(0%,26.274109%,50.289917%);fill-opacity:1;" d="M 538.332031 677.082031 C 537.164063 677.515625 534.878906 678.113281 532.425781 678.113281 C 529.324219 678.113281 526.984375 677.324219 525.242188 675.664063 C 523.609375 674.113281 522.65625 671.691406 522.683594 668.914063 C 522.683594 663.117188 526.820313 659.390625 532.890625 659.390625 C 535.148438 659.390625 536.917969 659.851563 537.761719 660.261719 L 537.027344 662.957031 C 536.019531 662.519531 534.796875 662.167969 532.863281 662.167969 C 528.941406 662.167969 526.195313 664.480469 526.195313 668.75 C 526.195313 672.914063 528.753906 675.394531 532.5625 675.394531 C 533.761719 675.394531 534.65625 675.230469 535.09375 675.011719 L 535.09375 670.4375 L 531.855469 670.4375 L 531.855469 667.800781 L 538.332031 667.800781 Z M 538.332031 677.082031 "/>
<path style=" stroke:none;fill-rule:nonzero;fill:rgb(0%,26.274109%,50.289917%);fill-opacity:1;" d="M 57.417969 639.789063 L 57.417969 631.863281 L 91.425781 631.863281 C 93.546875 631.863281 95.179688 631.324219 96.324219 630.242188 C 97.464844 629.160156 98.039063 627.726563 98.039063 625.9375 C 98.039063 623.980469 97.464844 622.515625 96.324219 621.539063 C 95.179688 620.558594 93.546875 620.070313 91.425781 620.070313 L 70.582031 620.070313 C 68.460938 620.070313 66.535156 619.75 64.8125 619.101563 C 63.085938 618.460938 61.628906 617.5625 60.441406 616.421875 C 59.257813 615.277344 58.34375 613.914063 57.699219 612.332031 C 57.050781 610.753906 56.730469 609.023438 56.730469 607.15625 C 56.730469 605.324219 57.03125 603.628906 57.636719 602.066406 C 58.238281 600.507813 59.132813 599.167969 60.320313 598.042969 C 61.503906 596.921875 62.96875 596.035156 64.71875 595.390625 C 66.464844 594.746094 68.460938 594.425781 70.707031 594.425781 L 103.28125 594.425781 L 103.28125 602.347656 L 70.707031 602.347656 C 68.875 602.347656 67.464844 602.839844 66.464844 603.816406 C 65.464844 604.792969 64.96875 606.15625 64.96875 607.902344 C 64.96875 609.648438 65.476563 611.003906 66.496094 611.960938 C 67.515625 612.917969 68.898438 613.394531 70.648438 613.394531 L 91.425781 613.394531 C 96.042969 613.394531 99.546875 614.476563 101.941406 616.640625 C 104.332031 618.800781 105.527344 622.089844 105.527344 626.5 C 105.527344 628.414063 105.234375 630.179688 104.65625 631.800781 C 104.070313 633.425781 103.199219 634.828125 102.03125 636.015625 C 100.867188 637.199219 99.402344 638.125 97.632813 638.792969 C 95.867188 639.457031 93.796875 639.789063 91.425781 639.789063 Z M 57.417969 639.789063 "/>
<path style=" stroke:none;fill-rule:nonzero;fill:rgb(0%,26.274109%,50.289917%);fill-opacity:1;" d="M 125.992188 613.394531 L 151.140625 613.394531 L 151.140625 620.070313 L 125.992188 620.070313 Z M 112.328125 639.789063 L 112.328125 594.425781 L 152.824219 594.425781 L 152.824219 602.347656 L 120.191406 602.347656 L 120.191406 631.863281 L 152.890625 631.863281 L 152.890625 639.789063 Z M 112.328125 639.789063 "/>
<path style=" stroke:none;fill-rule:nonzero;fill:rgb(0%,26.274109%,50.289917%);fill-opacity:1;" d="M 206.988281 639.789063 L 200.1875 628.371094 L 178.722656 628.371094 L 182.464844 621.941406 L 196.378906 621.941406 L 186.269531 604.96875 L 165.679688 639.789063 L 156.632813 639.789063 L 182.714844 596.359375 C 183.171875 595.566406 183.714844 594.945313 184.335938 594.484375 C 184.960938 594.03125 185.710938 593.800781 186.582031 593.800781 C 187.457031 593.800781 188.195313 594.03125 188.800781 594.484375 C 189.402344 594.945313 189.933594 595.566406 190.390625 596.359375 L 216.535156 639.789063 Z M 206.988281 639.789063 "/>
<path style=" stroke:none;fill-rule:nonzero;fill:rgb(2.705383%,60.546875%,88.256836%);fill-opacity:1;" d="M 239.75 639.789063 L 239.75 626.5 C 239.75 622.089844 240.933594 618.800781 243.304688 616.640625 C 245.675781 614.476563 249.148438 613.394531 253.726563 613.394531 L 270.136719 613.394531 C 271.882813 613.394531 273.277344 612.917969 274.316406 611.960938 C 275.355469 611.003906 275.878906 609.648438 275.878906 607.902344 C 275.878906 606.15625 275.367188 604.792969 274.347656 603.816406 C 273.328125 602.839844 271.925781 602.347656 270.136719 602.347656 L 240.121094 602.347656 L 240.121094 594.425781 L 270.136719 594.425781 C 272.382813 594.425781 274.371094 594.746094 276.09375 595.390625 C 277.820313 596.035156 279.277344 596.921875 280.464844 598.042969 C 281.648438 599.167969 282.542969 600.507813 283.148438 602.066406 C 283.75 603.628906 284.050781 605.324219 284.050781 607.15625 C 284.050781 609.023438 283.726563 610.753906 283.085938 612.332031 C 282.441406 613.914063 281.527344 615.277344 280.339844 616.421875 C 279.152344 617.5625 277.707031 618.460938 276.003906 619.101563 C 274.296875 619.75 272.363281 620.070313 270.199219 620.070313 L 253.726563 620.070313 C 249.398438 620.070313 247.234375 622.027344 247.234375 625.9375 L 247.234375 631.863281 L 283.304688 631.863281 L 283.304688 639.789063 Z M 239.75 639.789063 "/>
<path style=" stroke:none;fill-rule:nonzero;fill:rgb(0%,26.274109%,50.289917%);fill-opacity:1;" d="M 335.84375 631.863281 C 337.878906 631.863281 339.765625 631.488281 341.488281 630.742188 C 343.214844 629.992188 344.710938 628.960938 345.984375 627.652344 C 347.25 626.34375 348.238281 624.773438 348.945313 622.941406 C 349.652344 621.109375 350.007813 619.136719 350.007813 617.011719 C 350.007813 614.890625 349.652344 612.925781 348.945313 611.117188 C 348.238281 609.304688 347.25 607.757813 345.984375 606.46875 C 344.710938 605.179688 343.214844 604.167969 341.488281 603.441406 C 339.765625 602.714844 337.878906 602.347656 335.84375 602.347656 L 317.4375 602.347656 L 317.4375 631.863281 Z M 309.570313 639.789063 L 309.570313 594.425781 L 335.84375 594.425781 C 339.046875 594.425781 342 594.964844 344.703125 596.046875 C 347.40625 597.128906 349.738281 598.648438 351.691406 600.601563 C 353.648438 602.558594 355.175781 604.898438 356.277344 607.621094 C 357.378906 610.347656 357.933594 613.351563 357.933594 616.636719 C 357.933594 619.925781 357.378906 622.984375 356.277344 625.8125 C 355.175781 628.640625 353.648438 631.085938 351.691406 633.144531 C 349.738281 635.203125 347.40625 636.824219 344.703125 638.011719 C 342 639.195313 339.046875 639.789063 335.84375 639.789063 Z M 309.570313 639.789063 "/>
<path style=" stroke:none;fill-rule:nonzero;fill:rgb(0%,26.274109%,50.289917%);fill-opacity:1;" d="M 396.183594 631.863281 C 398.261719 631.863281 400.175781 631.488281 401.921875 630.742188 C 403.671875 629.992188 405.179688 628.960938 406.449219 627.652344 C 407.714844 626.34375 408.703125 624.773438 409.414063 622.941406 C 410.121094 621.109375 410.472656 619.136719 410.472656 617.011719 C 410.472656 614.890625 410.121094 612.925781 409.414063 611.117188 C 408.703125 609.304688 407.714844 607.757813 406.449219 606.46875 C 405.179688 605.179688 403.671875 604.167969 401.921875 603.441406 C 400.175781 602.714844 398.261719 602.347656 396.183594 602.347656 L 385.140625 602.347656 C 383.101563 602.347656 381.21875 602.714844 379.492188 603.441406 C 377.765625 604.167969 376.277344 605.179688 375.03125 606.46875 C 373.78125 607.757813 372.804688 609.296875 372.097656 611.085938 C 371.390625 612.875 371.035156 614.851563 371.035156 617.011719 C 371.035156 619.136719 371.390625 621.109375 372.097656 622.941406 C 372.804688 624.773438 373.78125 626.34375 375.03125 627.652344 C 376.277344 628.960938 377.765625 629.992188 379.492188 630.742188 C 381.21875 631.488281 383.101563 631.863281 385.140625 631.863281 Z M 385.140625 639.789063 C 381.976563 639.789063 379.054688 639.195313 376.371094 638.011719 C 373.6875 636.824219 371.359375 635.203125 369.382813 633.144531 C 367.40625 631.085938 365.867188 628.640625 364.765625 625.8125 C 363.664063 622.984375 363.113281 619.925781 363.113281 616.636719 C 363.113281 613.308594 363.664063 610.273438 364.765625 607.527344 C 365.867188 604.78125 367.40625 602.441406 369.382813 600.507813 C 371.359375 598.574219 373.6875 597.078125 376.371094 596.015625 C 379.054688 594.953125 381.976563 594.425781 385.140625 594.425781 L 396.183594 594.425781 C 399.46875 594.425781 402.476563 594.964844 405.199219 596.046875 C 407.925781 597.128906 410.265625 598.648438 412.21875 600.601563 C 414.175781 602.558594 415.695313 604.898438 416.777344 607.621094 C 417.855469 610.347656 418.398438 613.351563 418.398438 616.636719 C 418.398438 619.925781 417.847656 622.984375 416.746094 625.8125 C 415.640625 628.640625 414.101563 631.085938 412.125 633.144531 C 410.152344 635.203125 407.8125 636.824219 405.109375 638.011719 C 402.402344 639.195313 399.429688 639.789063 396.183594 639.789063 Z M 385.140625 639.789063 "/>
<path style=" stroke:none;fill-rule:nonzero;fill:rgb(0%,26.274109%,50.289917%);fill-opacity:1;" d="M 456.585938 631.863281 C 458.664063 631.863281 460.578125 631.488281 462.328125 630.742188 C 464.074219 629.992188 465.582031 628.960938 466.851563 627.652344 C 468.117188 626.34375 469.105469 624.773438 469.816406 622.941406 C 470.523438 621.109375 470.875 619.136719 470.875 617.011719 C 470.875 614.890625 470.523438 612.925781 469.816406 611.117188 C 469.105469 609.304688 468.117188 607.757813 466.851563 606.46875 C 465.582031 605.179688 464.074219 604.167969 462.328125 603.441406 C 460.578125 602.714844 458.664063 602.347656 456.585938 602.347656 L 445.542969 602.347656 C 443.503906 602.347656 441.621094 602.714844 439.894531 603.441406 C 438.167969 604.167969 436.679688 605.179688 435.433594 606.46875 C 434.183594 607.757813 433.207031 609.296875 432.5 611.085938 C 431.792969 612.875 431.441406 614.851563 431.441406 617.011719 C 431.441406 619.136719 431.792969 621.109375 432.5 622.941406 C 433.207031 624.773438 434.183594 626.34375 435.433594 627.652344 C 436.679688 628.960938 438.167969 629.992188 439.894531 630.742188 C 441.621094 631.488281 443.503906 631.863281 445.542969 631.863281 Z M 445.542969 639.789063 C 442.378906 639.789063 439.457031 639.195313 436.773438 638.011719 C 434.089844 636.824219 431.761719 635.203125 429.785156 633.144531 C 427.808594 631.085938 426.269531 628.640625 425.167969 625.8125 C 424.066406 622.984375 423.515625 619.925781 423.515625 616.636719 C 423.515625 613.308594 424.066406 610.273438 425.167969 607.527344 C 426.269531 604.78125 427.808594 602.441406 429.785156 600.507813 C 431.761719 598.574219 434.089844 597.078125 436.773438 596.015625 C 439.457031 594.953125 442.378906 594.425781 445.542969 594.425781 L 456.585938 594.425781 C 459.871094 594.425781 462.878906 594.964844 465.605469 596.046875 C 468.328125 597.128906 470.667969 598.648438 472.625 600.601563 C 474.578125 602.558594 476.097656 604.898438 477.179688 607.621094 C 478.261719 610.347656 478.800781 613.351563 478.800781 616.636719 C 478.800781 619.925781 478.25 622.984375 477.148438 625.8125 C 476.042969 628.640625 474.503906 631.085938 472.527344 633.144531 C 470.554688 635.203125 468.214844 636.824219 465.511719 638.011719 C 462.804688 639.195313 459.832031 639.789063 456.585938 639.789063 Z M 445.542969 639.789063 "/>
<path style=" stroke:none;fill-rule:nonzero;fill:rgb(0%,26.274109%,50.289917%);fill-opacity:1;" d="M 527.347656 639.789063 L 515.867188 627.183594 L 498.894531 627.183594 L 498.894531 620.195313 L 517.800781 620.195313 C 520.667969 620.195313 522.832031 619.414063 524.289063 617.855469 C 525.746094 616.296875 526.472656 614.039063 526.472656 611.085938 C 526.472656 608.132813 525.714844 605.9375 524.195313 604.503906 C 522.675781 603.066406 520.546875 602.347656 517.800781 602.347656 L 493.089844 602.347656 L 493.089844 639.789063 L 485.226563 639.789063 L 485.226563 594.425781 L 517.800781 594.425781 C 520.378906 594.425781 522.6875 594.808594 524.726563 595.578125 C 526.765625 596.347656 528.492188 597.449219 529.90625 598.886719 C 531.320313 600.320313 532.402344 602.058594 533.152344 604.097656 C 533.898438 606.136719 534.273438 608.421875 534.273438 610.960938 C 534.273438 614.746094 533.453125 617.917969 531.808594 620.476563 C 530.164063 623.035156 527.867188 624.875 524.914063 626 L 538.578125 639.789063 Z M 527.347656 639.789063 "/>
<path style=" stroke:none;fill-rule:nonzero;fill:rgb(2.705383%,60.546875%,88.256836%);fill-opacity:1;" d="M 364.753906 539.566406 C 328.4375 539.566406 297.582031 515.671875 297.265625 515.441406 C 294.804688 513.667969 244.367188 472.042969 210.964844 472.042969 C 183.441406 472.042969 165.277344 483.59375 154.855469 493.332031 C 158.359375 481.964844 165.890625 472.511719 165.980469 472.398438 C 166.183594 472.132813 180.355469 453.527344 213.585938 453.527344 C 247.910156 453.527344 276.328125 473.320313 276.613281 473.519531 L 276.847656 473.679688 C 281.699219 476.941406 298.402344 488.183594 309.632813 495.972656 C 320.804688 503.726563 341.601563 518.160156 380.582031 518.160156 C 401.140625 518.160156 416.859375 512.953125 426.839844 508.269531 C 414.871094 526.027344 388.78125 539.566406 364.753906 539.566406 "/>
<path style=" stroke:none;fill-rule:nonzero;fill:rgb(2.705383%,60.546875%,88.256836%);fill-opacity:1;" d="M 290.09375 544.355469 C 288.953125 544.355469 287.785156 544.332031 286.59375 544.28125 C 263.597656 543.308594 245.867188 534.765625 239.191406 531.546875 C 231.210938 527.703125 215.980469 519.394531 213.007813 517.765625 C 212.453125 517.441406 199.855469 510.167969 187.5625 510.167969 C 187.179688 510.167969 186.796875 510.175781 186.414063 510.191406 C 177.730469 510.519531 167.960938 512.164063 155.238281 521.136719 C 158.507813 510.496094 168.902344 491.296875 201.4375 490.007813 C 201.554688 490.003906 201.808594 489.992188 202.226563 489.988281 C 202.453125 489.988281 218.398438 490.144531 237.527344 502.957031 C 259.628906 517.761719 274.75 531.386719 306.949219 542.5 C 302.355469 543.542969 296.675781 544.355469 290.09375 544.355469 "/>
<path style=" stroke:none;fill-rule:nonzero;fill:rgb(0%,26.274109%,50.289917%);fill-opacity:1;" d="M 381.828125 409.902344 L 400.226563 421.363281 L 400.226563 162.234375 L 197.730469 162.234375 L 197.730469 411.390625 L 216.128906 425.503906 L 216.128906 180.632813 L 381.828125 180.632813 Z M 381.828125 409.902344 "/>
<path style=" stroke:none;fill-rule:nonzero;fill:rgb(0%,26.274109%,50.289917%);fill-opacity:1;" d="M 366.476563 313.355469 C 366.476563 307.21875 361.5 302.242188 355.363281 302.242188 C 349.222656 302.242188 344.25 307.21875 344.25 313.355469 C 344.25 319.496094 349.222656 324.472656 355.363281 324.472656 C 361.5 324.472656 366.476563 319.496094 366.476563 313.355469 "/>
<path style=" stroke:none;fill-rule:nonzero;fill:rgb(0%,26.274109%,50.289917%);fill-opacity:1;" d="M 342.140625 413.664063 C 342.140625 413.664063 325.578125 426.203125 325.578125 453.699219 C 325.578125 477.765625 345.195313 492.292969 349.375 494.058594 C 353.554688 495.828125 360.3125 499.046875 368.992188 498.722656 C 377.675781 498.402344 396.652344 491.648438 409.511719 482.804688 C 422.378906 473.960938 448.746094 449.839844 448.746094 449.839844 L 433.152344 432.152344 C 433.152344 432.152344 386.414063 383.21875 321.878906 383.21875 C 255.203125 383.21875 214.363281 417.414063 214.363281 417.414063 C 214.363281 417.414063 184.023438 374.855469 133.855469 364.351563 C 133.855469 364.351563 130.683594 373.722656 145.753906 411.519531 C 160.121094 447.535156 153.257813 462.332031 153.257813 462.332031 C 153.257813 462.332031 181.878906 441.855469 152.9375 385.683594 C 152.9375 385.683594 175.234375 391.578125 210.824219 437.03125 C 210.824219 437.03125 258.417969 397.796875 323.59375 401.441406 C 388.773438 405.085938 430.792969 449.253906 430.792969 449.253906 L 409.136719 467.476563 C 409.136719 467.476563 382.769531 482.910156 364.328125 482.910156 C 345.894531 482.910156 336.03125 461.472656 336.03125 453.96875 C 336.03125 446.464844 334.53125 422.292969 342.140625 413.664063 "/>
<path style=" stroke:none;fill-rule:nonzero;fill:rgb(0%,26.274109%,50.289917%);fill-opacity:1;" d="M 366.902344 436.925781 C 366.902344 432.304688 370.644531 428.5625 375.265625 428.5625 C 379.882813 428.5625 383.625 432.304688 383.625 436.925781 C 383.625 441.542969 379.882813 445.285156 375.265625 445.285156 C 370.644531 445.285156 366.902344 441.542969 366.902344 436.925781 "/>
</g>
</svg>
